<svg width="35" height="32" viewBox="0 0 35 32" fill="none" xmlns="http://www.w3.org/2000/svg">
<rect x="1" width="32" height="32" rx="5" fill="#4E30BF"/>
<g filter="url(#filter0_f_435_66)">
<path d="M28.6567 12.0836C30.4784 17.2973 25.9579 22.4573 19.7014 24.6433C13.4449 26.8294 7.82156 25.2137 5.99985 20C4.17814 14.7862 8.44489 9.82936 14.7014 7.64331C20.9579 5.45727 26.835 6.86983 28.6567 12.0836Z" fill="url(#paint0_linear_435_66)"/>
<path d="M25.4951 12H23.6257C23.4865 11.3039 23.2346 10.6609 22.8701 10.071C22.5121 9.47439 22.0613 8.95403 21.5178 8.5099C20.9742 8.06577 20.3577 7.72107 19.6684 7.47581C18.979 7.23054 18.2332 7.10791 17.4311 7.10791C16.1452 7.10791 14.9719 7.44266 13.9113 8.11217C12.8573 8.78168 12.0121 9.76605 11.3757 11.0653C10.746 12.3579 10.4311 13.9422 10.4311 15.8181C10.4311 17.7073 10.746 19.2983 11.3757 20.5909C12.0121 21.8835 12.8573 22.8645 13.9113 23.534C14.9719 24.1969 16.1452 24.5284 17.4311 24.5284C18.2332 24.5284 18.979 24.4057 19.6684 24.1605C20.3577 23.9152 20.9742 23.5738 21.5178 23.1363C22.0613 22.6922 22.5121 22.1718 22.8701 21.5752C23.2346 20.9787 23.4865 20.3323 23.6257 19.6363H25.4951C25.3293 20.571 25.0178 21.4427 24.5604 22.2514C24.1096 23.0535 23.5329 23.7561 22.8303 24.3593C22.1343 24.9626 21.3322 25.4332 20.424 25.7713C19.5159 26.1093 18.5183 26.2784 17.4311 26.2784C15.7209 26.2784 14.2029 25.8508 12.8772 24.9957C11.5514 24.134 10.5107 22.9209 9.755 21.3565C9.00595 19.7921 8.63142 17.946 8.63142 15.8181C8.63142 13.6903 9.00595 11.8442 9.755 10.2798C10.5107 8.71539 11.5514 7.50564 12.8772 6.65052C14.2029 5.78878 15.7209 5.35791 17.4311 5.35791C18.5183 5.35791 19.5159 5.52694 20.424 5.86501C21.3322 6.19645 22.1343 6.6671 22.8303 7.27694C23.5329 7.88016 24.1096 8.58282 24.5604 9.3849C25.0178 10.187 25.3293 11.0587 25.4951 12Z" fill="#F9F9F9"/>
<path d="M24.9959 22.4971C25.0323 22.4327 25.0678 22.3679 25.1025 22.3027C26.0708 21.5478 26.9177 20.707 27.6063 19.8015C29.3674 17.4858 30.1072 14.7193 29.1287 11.9187C28.1604 9.14752 26.1041 7.38232 23.4836 6.60897C23.1557 6.51219 22.8192 6.43097 22.4751 6.36516C21.9035 5.96717 21.277 5.64418 20.5969 5.39586C19.627 5.03502 18.57 4.85791 17.4311 4.85791C15.6327 4.85791 14.0187 5.31237 12.6054 6.23082C11.2339 7.11562 10.1569 8.35367 9.37087 9.92773L8.93021 10.9454C6.16867 13.4151 4.83099 16.6547 5.99985 20C7.08773 23.1135 9.53133 24.9439 12.6559 25.4477C13.0369 25.6898 13.4324 25.8986 13.8421 26.0743M24.9959 22.4971C24.9958 22.4972 24.9957 22.4974 24.9956 22.4975L24.911 22.4497M24.9959 22.4971C24.5165 23.3498 23.9028 24.0974 23.1567 24.7381C22.4134 25.382 21.5592 25.8822 20.5985 26.2398C19.6281 26.6011 18.5706 26.7784 17.4311 26.7784C16.1374 26.7784 14.939 26.5449 13.8421 26.0743M24.9959 22.4971C24.996 22.4968 24.9961 22.4966 24.9963 22.4963L24.912 22.449C24.9117 22.4492 24.9114 22.4495 24.911 22.4497M24.911 22.4497C24.6271 22.6643 24.3333 22.8716 24.0304 23.0712C23.6825 23.5417 23.2825 23.9711 22.8303 24.3593C22.1343 24.9626 21.3322 25.4332 20.424 25.7713C19.5159 26.1093 18.5183 26.2784 17.4311 26.2784C16.7256 26.2784 16.0529 26.2056 15.4128 26.0601C14.8783 26.0958 14.3539 26.1006 13.8421 26.0743" stroke="#0056FF"/>
</g>
<g filter="url(#filter1_d_435_66)">
<path d="M28.6567 12.0836C30.4784 17.2973 25.9579 22.4573 19.7014 24.6433C13.4449 26.8294 7.82156 25.2137 5.99985 20C4.17814 14.7862 8.44489 9.82936 14.7014 7.64331C20.9579 5.45727 26.835 6.86983 28.6567 12.0836Z" fill="url(#paint1_linear_435_66)"/>
<path d="M25.4951 12H23.6257C23.4865 11.3039 23.2346 10.6609 22.8701 10.071C22.5121 9.47439 22.0613 8.95403 21.5178 8.5099C20.9742 8.06577 20.3577 7.72107 19.6684 7.47581C18.979 7.23054 18.2332 7.10791 17.4311 7.10791C16.1452 7.10791 14.9719 7.44266 13.9113 8.11217C12.8573 8.78168 12.0121 9.76605 11.3757 11.0653C10.746 12.3579 10.4311 13.9422 10.4311 15.8181C10.4311 17.7073 10.746 19.2983 11.3757 20.5909C12.0121 21.8835 12.8573 22.8645 13.9113 23.534C14.9719 24.1969 16.1452 24.5284 17.4311 24.5284C18.2332 24.5284 18.979 24.4057 19.6684 24.1605C20.3577 23.9152 20.9742 23.5738 21.5178 23.1363C22.0613 22.6922 22.5121 22.1718 22.8701 21.5752C23.2346 20.9787 23.4865 20.3323 23.6257 19.6363H25.4951C25.3293 20.571 25.0178 21.4427 24.5604 22.2514C24.1096 23.0535 23.5329 23.7561 22.8303 24.3593C22.1343 24.9626 21.3322 25.4332 20.424 25.7713C19.5159 26.1093 18.5183 26.2784 17.4311 26.2784C15.7209 26.2784 14.2029 25.8508 12.8772 24.9957C11.5514 24.134 10.5107 22.9209 9.755 21.3565C9.00595 19.7921 8.63142 17.946 8.63142 15.8181C8.63142 13.6903 9.00595 11.8442 9.755 10.2798C10.5107 8.71539 11.5514 7.50564 12.8772 6.65052C14.2029 5.78878 15.7209 5.35791 17.4311 5.35791C18.5183 5.35791 19.5159 5.52694 20.424 5.86501C21.3322 6.19645 22.1343 6.6671 22.8303 7.27694C23.5329 7.88016 24.1096 8.58282 24.5604 9.3849C25.0178 10.187 25.3293 11.0587 25.4951 12Z" fill="#F9F9F9"/>
<path d="M24.9959 22.4971C25.0323 22.4327 25.0678 22.3679 25.1025 22.3027C26.0708 21.5478 26.9177 20.707 27.6063 19.8015C29.3674 17.4858 30.1072 14.7193 29.1287 11.9187C28.1604 9.14752 26.1041 7.38232 23.4836 6.60897C23.1557 6.51219 22.8192 6.43097 22.4751 6.36516C21.9035 5.96717 21.277 5.64418 20.5969 5.39586C19.627 5.03502 18.57 4.85791 17.4311 4.85791C15.6327 4.85791 14.0187 5.31237 12.6054 6.23082C11.2339 7.11562 10.1569 8.35367 9.37087 9.92773L8.93021 10.9454C6.16867 13.4151 4.83099 16.6547 5.99985 20C7.08773 23.1135 9.53133 24.9439 12.6559 25.4477C13.0369 25.6898 13.4324 25.8986 13.8421 26.0743M24.9959 22.4971C24.9958 22.4972 24.9957 22.4974 24.9956 22.4975L24.911 22.4497M24.9959 22.4971C24.5165 23.3498 23.9028 24.0974 23.1567 24.7381C22.4134 25.382 21.5592 25.8822 20.5985 26.2398C19.6281 26.6011 18.5706 26.7784 17.4311 26.7784C16.1374 26.7784 14.939 26.5449 13.8421 26.0743M24.9959 22.4971C24.996 22.4968 24.9961 22.4966 24.9963 22.4963L24.912 22.449C24.9117 22.4492 24.9114 22.4495 24.911 22.4497M24.911 22.4497C24.6271 22.6643 24.3333 22.8716 24.0304 23.0712C23.6825 23.5417 23.2825 23.9711 22.8303 24.3593C22.1343 24.9626 21.3322 25.4332 20.424 25.7713C19.5159 26.1093 18.5183 26.2784 17.4311 26.2784C16.7256 26.2784 16.0529 26.2056 15.4128 26.0601C14.8783 26.0958 14.3539 26.1006 13.8421 26.0743" stroke="#0056FF"/>
</g>
<defs>
<filter id="filter0_f_435_66" x="0.575684" y="0.35791" width="33.4888" height="30.9205" filterUnits="userSpaceOnUse" color-interpolation-filters="sRGB">
<feFlood flood-opacity="0" result="BackgroundImageFix"/>
<feBlend mode="normal" in="SourceGraphic" in2="BackgroundImageFix" result="shape"/>
<feGaussianBlur stdDeviation="2" result="effect1_foregroundBlur_435_66"/>
</filter>
<filter id="filter1_d_435_66" x="3.77568" y="4.35791" width="27.0888" height="25.7205" filterUnits="userSpaceOnUse" color-interpolation-filters="sRGB">
<feFlood flood-opacity="0" result="BackgroundImageFix"/>
<feColorMatrix in="SourceAlpha" type="matrix" values="0 0 0 0 0 0 0 0 0 0 0 0 0 0 0 0 0 0 127 0" result="hardAlpha"/>
<feOffset dy="2"/>
<feGaussianBlur stdDeviation="0.4"/>
<feComposite in2="hardAlpha" operator="out"/>
<feColorMatrix type="matrix" values="0 0 0 0 0 0 0 0 0 0 0 0 0 0 0 0 0 0 0.25 0"/>
<feBlend mode="normal" in2="BackgroundImageFix" result="effect1_dropShadow_435_66"/>
<feBlend mode="normal" in="SourceGraphic" in2="effect1_dropShadow_435_66" result="shape"/>
</filter>
<linearGradient id="paint0_linear_435_66" x1="29" y1="2.03119e-07" x2="5" y2="32" gradientUnits="userSpaceOnUse">
<stop stop-color="#FF4D00" stop-opacity="0.72"/>
<stop offset="1" stop-color="#4E30BF"/>
</linearGradient>
<linearGradient id="paint1_linear_435_66" x1="29" y1="2.03119e-07" x2="5" y2="32" gradientUnits="userSpaceOnUse">
<stop stop-color="#FF4D00"/>
<stop offset="0.72" stop-color="#4E30BF"/>
</linearGradient>
</defs>
</svg>
