<svg width="271" height="58" viewBox="0 0 271 58" fill="none" xmlns="http://www.w3.org/2000/svg">
<path d="M31.7457 22H29.5639C29.3366 20.8182 28.9105 19.6761 28.2855 18.5739C27.6605 17.4602 26.8537 16.4602 25.8651 15.5739C24.8878 14.6761 23.7514 13.9659 22.456 13.4432C21.1605 12.9205 19.7287 12.6591 18.1605 12.6591C15.8651 12.6591 13.7514 13.2727 11.8196 14.5C9.89915 15.7159 8.35938 17.5057 7.20028 19.8693C6.05256 22.233 5.47869 25.125 5.47869 28.5455C5.47869 31.9886 6.05256 34.892 7.20028 37.2557C8.35938 39.6193 9.89915 41.4091 11.8196 42.625C13.7514 43.8295 15.8651 44.4318 18.1605 44.4318C19.7287 44.4318 21.1605 44.1761 22.456 43.6648C23.7514 43.142 24.8878 42.4375 25.8651 41.5511C26.8537 40.6534 27.6605 39.6477 28.2855 38.5341C28.9105 37.4205 29.3366 36.2727 29.5639 35.0909H31.7457C31.4957 36.5 31.0128 37.8807 30.2969 39.233C29.5923 40.5852 28.6605 41.8125 27.5014 42.9148C26.3537 44.0057 24.9957 44.875 23.4276 45.5227C21.8707 46.1591 20.1151 46.4773 18.1605 46.4773C15.2514 46.4773 12.6889 45.7386 10.473 44.2614C8.2571 42.7727 6.51847 40.6818 5.2571 37.9886C4.0071 35.2955 3.3821 32.1477 3.3821 28.5455C3.3821 24.9432 4.0071 21.7955 5.2571 19.1023C6.51847 16.4091 8.2571 14.3239 10.473 12.8466C12.6889 11.358 15.2514 10.6136 18.1605 10.6136C20.1151 10.6136 21.8707 10.9375 23.4276 11.5852C24.9957 12.2216 26.3537 13.0852 27.5014 14.1761C28.6605 15.2557 29.5923 16.4716 30.2969 17.8239C31.0128 19.1761 31.4957 20.5682 31.7457 22Z" fill="#FF4D00"/>
<path d="M102.028 19.8182C101.846 17.6477 100.96 15.892 99.3686 14.5511C97.7891 13.2102 95.7436 12.5398 93.2322 12.5398C91.5391 12.5398 90.0334 12.8523 88.7152 13.4773C87.397 14.1023 86.3629 14.9545 85.6129 16.0341C84.8629 17.1136 84.4879 18.3523 84.4879 19.75C84.4879 20.6477 84.6584 21.4602 84.9993 22.1875C85.3516 22.9034 85.8459 23.5455 86.4822 24.1136C87.1186 24.6705 87.8743 25.1591 88.7493 25.5795C89.6243 26 90.5902 26.3693 91.647 26.6875L95.4652 27.8125C96.772 28.2102 97.9766 28.6705 99.0788 29.1932C100.192 29.7159 101.158 30.3409 101.977 31.0682C102.806 31.7841 103.448 32.625 103.903 33.5909C104.369 34.5568 104.602 35.6705 104.602 36.9318C104.602 38.7727 104.124 40.4205 103.17 41.875C102.227 43.3295 100.88 44.4773 99.13 45.3182C97.3913 46.1477 95.3402 46.5625 92.9766 46.5625C90.7266 46.5625 88.7663 46.1818 87.0959 45.4205C85.4368 44.6591 84.1243 43.6023 83.1584 42.25C82.1925 40.8864 81.647 39.3182 81.522 37.5455H83.7038C83.8175 38.9886 84.2777 40.2386 85.0845 41.2955C85.9027 42.3409 86.9879 43.1477 88.3402 43.7159C89.6925 44.2841 91.2379 44.5682 92.9766 44.5682C94.8516 44.5682 96.505 44.25 97.9368 43.6136C99.3686 42.9659 100.488 42.0682 101.295 40.9205C102.102 39.7727 102.505 38.4375 102.505 36.9148C102.505 35.6875 102.215 34.6364 101.636 33.7614C101.056 32.8864 100.198 32.1307 99.0618 31.4943C97.9368 30.858 96.5391 30.2898 94.8686 29.7898L90.7947 28.5625C88.0675 27.733 85.9822 26.6023 84.5391 25.1705C83.1072 23.7386 82.3913 21.9545 82.3913 19.8182C82.3913 18.0227 82.8686 16.4318 83.8232 15.0455C84.7777 13.6477 86.0732 12.5511 87.7095 11.7557C89.3572 10.9602 91.2152 10.5625 93.2834 10.5625C95.3629 10.5625 97.1982 10.9659 98.7891 11.7727C100.38 12.5682 101.641 13.6648 102.573 15.0625C103.505 16.4489 104.022 18.0341 104.124 19.8182H102.028ZM113.022 11.0909H115.34L128.789 42.9318H129.028L142.477 11.0909H144.795V46H142.749V16.1534H142.545L129.914 46H127.903L115.272 16.1534H115.067V46H113.022V11.0909Z" fill="#FF4D00"/>
<path d="M191.381 46V11.0909H210.864V13.0682H193.512V27.5398H209.245V29.517H193.512V46H191.381ZM225.835 46.5455C223.732 46.5455 221.897 45.9659 220.329 44.8068C218.761 43.6477 217.545 42.0511 216.681 40.017C215.829 37.9716 215.403 35.625 215.403 32.9773C215.403 30.3523 215.835 28.0227 216.698 25.9886C217.573 23.9432 218.795 22.3409 220.363 21.1818C221.931 20.0114 223.761 19.4261 225.852 19.4261C227.352 19.4261 228.653 19.7159 229.755 20.2955C230.869 20.8636 231.8 21.6193 232.55 22.5625C233.312 23.5057 233.891 24.5398 234.289 25.6648H234.494V11.0909H236.556V46H234.545V40.2898H234.289C233.869 41.4148 233.283 42.4545 232.533 43.4091C231.783 44.3523 230.852 45.1136 229.738 45.6932C228.624 46.2614 227.323 46.5455 225.835 46.5455ZM226.022 44.6193C227.795 44.6193 229.312 44.1136 230.573 43.1023C231.846 42.0795 232.817 40.6932 233.488 38.9432C234.17 37.1818 234.511 35.1875 234.511 32.9602C234.511 30.733 234.17 28.75 233.488 27.0114C232.817 25.2614 231.846 23.8864 230.573 22.8864C229.312 21.875 227.795 21.3693 226.022 21.3693C224.227 21.3693 222.687 21.8807 221.403 22.9034C220.13 23.9148 219.153 25.2955 218.471 27.0455C217.8 28.7955 217.465 30.767 217.465 32.9602C217.465 35.1534 217.8 37.1307 218.471 38.892C219.153 40.6534 220.13 42.0511 221.403 43.0852C222.687 44.108 224.227 44.6193 226.022 44.6193ZM246.647 46V11.0909H248.71V25.6648H248.914C249.323 24.5398 249.903 23.5057 250.653 22.5625C251.403 21.6193 252.335 20.8636 253.448 20.2955C254.562 19.7159 255.863 19.4261 257.352 19.4261C259.454 19.4261 261.289 20.0114 262.857 21.1818C264.425 22.3409 265.641 23.9432 266.505 25.9886C267.369 28.0227 267.8 30.3523 267.8 32.9773C267.8 35.625 267.369 37.9716 266.505 40.017C265.641 42.0511 264.431 43.6477 262.874 44.8068C261.317 45.9659 259.482 46.5455 257.369 46.5455C255.88 46.5455 254.579 46.2614 253.465 45.6932C252.352 45.1136 251.42 44.3523 250.67 43.4091C249.92 42.4545 249.335 41.4148 248.914 40.2898H248.675V46H246.647ZM248.692 32.9602C248.692 35.1875 249.028 37.1818 249.698 38.9432C250.38 40.6932 251.357 42.0795 252.63 43.1023C253.903 44.1136 255.425 44.6193 257.198 44.6193C258.994 44.6193 260.528 44.108 261.8 43.0852C263.073 42.0511 264.045 40.6534 264.715 38.892C265.397 37.1307 265.738 35.1534 265.738 32.9602C265.738 30.767 265.397 28.7955 264.715 27.0455C264.045 25.2955 263.073 23.9148 261.8 22.9034C260.528 21.8807 258.994 21.3693 257.198 21.3693C255.425 21.3693 253.903 21.875 252.63 22.8864C251.357 23.8864 250.38 25.2614 249.698 27.0114C249.028 28.75 248.692 30.733 248.692 32.9602Z" fill="#FF4D00"/>
<path d="M181.677 38.0977C181.036 37.2398 180.088 36.5802 178.711 36.7953C175.53 37.2924 177.22 34.8067 174.933 35.801C173.104 36.5964 171.784 38.8501 171.354 39.8776C171.221 39.2479 170.717 37.8691 169.763 37.3919C168.57 36.7953 168.172 37.7896 167.476 36.7953C166.78 35.801 166.78 34.409 166.183 33.017C165.587 31.625 168.172 29.537 169.763 30.3324C171.354 31.1278 172.348 30.6307 173.143 31.8238C173.939 33.017 174.933 34.5084 174.933 30.3324C174.933 26.1564 176.922 24.2672 177.816 24.3667C178.711 24.4661 181.495 23.4716 180.998 22.4775C180.501 21.4835 177.816 20.9861 177.816 20.0912C177.816 19.1964 179.01 17.3075 177.816 16.4126C176.623 15.5178 173.64 13.728 171.354 13.9269C169.067 14.1257 168.362 15.0212 168.362 15.8166C168.362 16.6121 171.354 18.1037 169.763 19.0975C168.172 20.0912 163.002 21.6816 163.002 20.0912C163.002 18.5009 162.703 15.1203 163.698 15.1203C164.692 15.1203 164.99 12.6346 165.587 12.734C166.183 12.8335 168.669 11.7404 169.763 12.2372C170.098 12.3895 171.2 12.1026 172.44 11.5857M181.677 38.0977C183.765 35.2742 185 31.7813 185 28C185 20.1473 179.676 13.5382 172.44 11.5857M181.677 38.0977C178.581 42.285 173.608 45 168 45C167.002 45 166.023 44.9139 165.072 44.7488M165.072 44.7488C165.201 44.0092 165.369 43.3981 165.587 43.0593C166.482 41.6673 169.464 42.6616 169.763 41.9656C170.061 41.2696 168.768 40.4741 167.476 39.8776C166.183 39.281 163.996 38.6844 163.698 35.801C163.399 32.9176 162.007 33.4147 161.709 33.017C161.411 32.6193 157.931 31.5256 156.837 29.537C155.743 27.5484 156.837 24.1678 156.837 23.273C156.836 22.6404 154.094 21.9614 152.243 21.6061M165.072 44.7488C157.079 43.3613 151 36.3905 151 28C151 25.7384 151.442 23.5799 152.243 21.6061M152.243 21.6061C154.77 15.386 160.873 11 168 11C169.536 11 171.025 11.2038 172.44 11.5857" stroke="#FF4D00" stroke-width="2" stroke-linecap="square" stroke-linejoin="round"/>
<path d="M71.4424 32.155C77.035 38.7071 79.6468 44.2106 77.588 46.1717C75.7346 47.9371 70.5198 46.429 64.0139 42.6683M71.4424 32.155C73.1229 24.8636 69.8048 17.0526 62.8776 13.3234C58.1933 10.8016 52.8597 10.6852 48.301 12.5493M71.4424 32.155C71.1493 33.4271 70.7039 34.6833 70.0991 35.8993M48.301 12.5493C41.321 8.3492 35.6507 6.58336 33.7009 8.44061C31.7335 10.3146 34.0311 15.4232 39.1189 21.5905M48.301 12.5493C47.1442 13.0223 46.0372 13.6229 45.0035 14.3441M45.0035 14.3441C40.9445 11.8398 37.9829 10.6875 37.1302 11.4997C36.2677 12.3213 37.7337 14.9898 40.7752 18.5918M45.0035 14.3441C43.3849 15.4732 41.9457 16.898 40.7752 18.5918M40.7752 18.5918C40.4189 19.1073 40.0876 19.6477 39.7837 20.2123C39.5394 20.6659 39.318 21.1258 39.1189 21.5905M40.7752 18.5918C43.5444 21.8715 47.6198 25.925 52.4329 30.063C57.6665 34.5625 62.7454 38.2789 66.6537 40.597M39.1189 21.5905C41.9785 25.0568 45.7194 28.8576 50.08 32.6065C54.8904 36.7422 59.7318 40.1931 64.0139 42.6683M39.1189 21.5905C35.6874 29.6007 38.9034 39.0598 46.7488 43.2833C52.3914 46.321 58.9762 45.8685 64.0139 42.6683M64.0139 42.6683C64.9529 42.0717 65.8383 41.3797 66.6537 40.597M66.6537 40.597C67.8988 39.4018 68.981 37.9953 69.8428 36.3944C69.9312 36.2302 70.0166 36.0651 70.0991 35.8993M66.6537 40.597C70.2871 42.752 72.9088 43.6985 73.7027 42.9423C74.5612 42.1245 73.1124 39.4765 70.0991 35.8993" stroke="#FF4D00" stroke-width="2" stroke-linejoin="round"/>
</svg>
