<svg width="416" height="94" viewBox="0 0 416 94" fill="none" xmlns="http://www.w3.org/2000/svg">
<path d="M53.643 35H46.7737C46.3675 33.0241 45.6565 31.2884 44.6409 29.7926C43.6437 28.2969 42.425 27.0412 40.9846 26.0256C39.5628 24.9915 37.9839 24.2159 36.2481 23.6989C34.5123 23.1818 32.7027 22.9233 30.8192 22.9233C27.3845 22.9233 24.273 23.7912 21.4846 25.527C18.7148 27.2628 16.5081 29.8203 14.8646 33.1996C13.2396 36.5788 12.4271 40.7244 12.4271 45.6364C12.4271 50.5483 13.2396 54.6939 14.8646 58.0732C16.5081 61.4524 18.7148 64.0099 21.4846 65.7457C24.273 67.4815 27.3845 68.3494 30.8192 68.3494C32.7027 68.3494 34.5123 68.0909 36.2481 67.5739C37.9839 67.0568 39.5628 66.2905 40.9846 65.2749C42.425 64.2408 43.6437 62.9759 44.6409 61.4801C45.6565 59.9659 46.3675 58.2301 46.7737 56.2727H53.643C53.126 59.1719 52.1842 61.7663 50.8177 64.0561C49.4513 66.3459 47.7524 68.294 45.7212 69.9006C43.6899 71.4886 41.4094 72.6982 38.8795 73.5291C36.3682 74.3601 33.6814 74.7756 30.8192 74.7756C25.9811 74.7756 21.6785 73.5938 17.9115 71.2301C14.1444 68.8665 11.1807 65.5057 9.02015 61.1477C6.85964 56.7898 5.77939 51.6193 5.77939 45.6364C5.77939 39.6534 6.85964 34.483 9.02015 30.125C11.1807 25.767 14.1444 22.4062 17.9115 20.0426C21.6785 17.679 25.9811 16.4972 30.8192 16.4972C33.6814 16.4972 36.3682 16.9126 38.8795 17.7436C41.4094 18.5746 43.6899 19.7933 45.7212 21.3999C47.7524 22.9879 49.4513 24.9268 50.8177 27.2166C52.1842 29.4879 53.126 32.0824 53.643 35Z" fill="#4E30BF"/>
<path d="M177.326 31.4545C176.993 28.6477 175.645 26.4688 173.282 24.9176C170.918 23.3665 168.019 22.5909 164.584 22.5909C162.073 22.5909 159.875 22.9972 157.992 23.8097C156.127 24.6222 154.668 25.7393 153.615 27.1612C152.581 28.5831 152.064 30.1989 152.064 32.0085C152.064 33.5227 152.424 34.8246 153.145 35.9141C153.883 36.9851 154.825 37.8807 155.97 38.6009C157.115 39.3026 158.315 39.8842 159.571 40.3459C160.826 40.7891 161.98 41.1491 163.033 41.4261L168.794 42.9773C170.272 43.3651 171.915 43.9006 173.725 44.5838C175.553 45.267 177.298 46.1996 178.96 47.3814C180.64 48.5447 182.025 50.0405 183.115 51.8686C184.204 53.6967 184.749 55.9403 184.749 58.5994C184.749 61.6648 183.946 64.4347 182.339 66.9091C180.751 69.3835 178.424 71.3501 175.359 72.8089C172.312 74.2678 168.61 74.9972 164.252 74.9972C160.189 74.9972 156.672 74.3416 153.699 73.0305C150.744 71.7195 148.417 69.8913 146.718 67.5462C145.038 65.201 144.087 62.4773 143.865 59.375H150.956C151.141 61.517 151.861 63.2898 153.117 64.6932C154.391 66.0781 155.998 67.1122 157.936 67.7955C159.894 68.4602 161.999 68.7926 164.252 68.7926C166.874 68.7926 169.228 68.3679 171.315 67.5185C173.402 66.6506 175.054 65.4503 176.273 63.9176C177.492 62.3665 178.101 60.5568 178.101 58.4886C178.101 56.6051 177.575 55.0724 176.522 53.8906C175.47 52.7088 174.085 51.7486 172.368 51.0099C170.65 50.2713 168.794 49.625 166.8 49.071L159.82 47.0767C155.388 45.8026 151.88 43.9837 149.294 41.62C146.709 39.2564 145.417 36.1634 145.417 32.3409C145.417 29.1648 146.275 26.3949 147.993 24.0312C149.728 21.6491 152.055 19.8026 154.973 18.4915C157.909 17.1619 161.186 16.4972 164.806 16.4972C168.462 16.4972 171.712 17.1527 174.556 18.4638C177.4 19.7564 179.652 21.5291 181.314 23.782C182.995 26.0348 183.881 28.5923 183.973 31.4545H177.326ZM196.043 17.2727H204.242L223.52 64.3608H224.185L243.464 17.2727H251.662V74H245.236V30.9006H244.682L226.955 74H220.751L203.023 30.9006H202.469V74H196.043V17.2727Z" fill="#4E30BF"/>
<path d="M339.103 74.8864C335.558 74.8864 332.428 73.9908 329.713 72.1996C326.999 70.3899 324.875 67.8416 323.342 64.5547C321.81 61.2493 321.043 57.3438 321.043 52.8381C321.043 48.3693 321.81 44.4915 323.342 41.2045C324.875 37.9176 327.008 35.3786 329.741 33.5874C332.474 31.7962 335.631 30.9006 339.214 30.9006C341.984 30.9006 344.172 31.3622 345.778 32.2855C347.403 33.1903 348.641 34.2244 349.49 35.3878C350.358 36.5327 351.032 37.4744 351.512 38.2131H352.066V17.2727H358.603V74H352.288V67.4631H351.512C351.032 68.2386 350.349 69.2173 349.462 70.3991C348.576 71.5625 347.311 72.6058 345.668 73.5291C344.024 74.4339 341.836 74.8864 339.103 74.8864ZM339.989 69.0142C342.612 69.0142 344.827 68.331 346.637 66.9645C348.447 65.5795 349.822 63.6683 350.764 61.2308C351.706 58.7749 352.177 55.9403 352.177 52.7273C352.177 49.5511 351.715 46.772 350.792 44.3899C349.869 41.9893 348.502 40.1243 346.692 38.7947C344.883 37.4467 342.648 36.7727 339.989 36.7727C337.219 36.7727 334.911 37.4837 333.065 38.9055C331.237 40.3089 329.861 42.2202 328.938 44.6392C328.033 47.0398 327.58 49.7358 327.58 52.7273C327.58 55.7557 328.042 58.5071 328.965 60.9815C329.907 63.4375 331.292 65.3949 333.12 66.8537C334.967 68.294 337.256 69.0142 339.989 69.0142ZM372.369 74V17.2727H378.906V38.2131H379.46C379.94 37.4744 380.605 36.5327 381.455 35.3878C382.322 34.2244 383.56 33.1903 385.166 32.2855C386.791 31.3622 388.989 30.9006 391.759 30.9006C395.341 30.9006 398.499 31.7962 401.232 33.5874C403.964 35.3786 406.097 37.9176 407.63 41.2045C409.163 44.4915 409.929 48.3693 409.929 52.8381C409.929 57.3438 409.163 61.2493 407.63 64.5547C406.097 67.8416 403.974 70.3899 401.259 72.1996C398.545 73.9908 395.415 74.8864 391.869 74.8864C389.136 74.8864 386.948 74.4339 385.305 73.5291C383.661 72.6058 382.396 71.5625 381.51 70.3991C380.624 69.2173 379.94 68.2386 379.46 67.4631H378.685V74H372.369ZM378.795 52.7273C378.795 55.9403 379.266 58.7749 380.208 61.2308C381.15 63.6683 382.526 65.5795 384.335 66.9645C386.145 68.331 388.361 69.0142 390.983 69.0142C393.716 69.0142 395.996 68.294 397.825 66.8537C399.671 65.3949 401.056 63.4375 401.979 60.9815C402.921 58.5071 403.392 55.7557 403.392 52.7273C403.392 49.7358 402.93 47.0398 402.007 44.6392C401.102 42.2202 399.727 40.3089 397.88 38.9055C396.052 37.4837 393.753 36.7727 390.983 36.7727C388.324 36.7727 386.089 37.4467 384.28 38.7947C382.47 40.1243 381.104 41.9893 380.18 44.3899C379.257 46.772 378.795 49.5511 378.795 52.7273Z" fill="#4E30BF"/>
<circle cx="285.5" cy="46.5" r="28.5" fill="#0056FF" stroke="#4E30BF" stroke-width="2"/>
<path d="M267.02 49.1403C264.043 48.3962 261.818 50.7626 260.454 52.7001C259.527 54.0181 259.391 55.898 260.063 57.3628C260.606 58.5466 261.266 59.8872 261.814 60.7089C262.318 61.465 262.988 62.3769 263.583 63.1652C264.51 64.3936 265.617 65.7179 267.156 65.7357C268.486 65.751 269.822 65.132 271.069 64.7579C273.575 63.7939 278.704 61.1716 279.167 58.3952C279.629 55.6187 278.422 55.2241 278.01 54.9246C275.889 53.3821 270.722 50.0657 267.02 49.1403Z" fill="#52BB47"/>
<path d="M260.863 52.9879C261.531 52.0385 262.387 51.02 263.412 50.3292C264.425 49.6463 265.581 49.296 266.898 49.6253C268.683 50.0714 270.853 51.1049 272.862 52.2367C274.864 53.3641 276.67 54.5682 277.716 55.3289C277.795 55.3863 277.87 55.4337 277.942 55.4793C278.144 55.6067 278.323 55.7192 278.49 55.992C278.7 56.3358 278.894 56.9928 278.673 58.313C278.58 58.8761 278.239 59.4758 277.687 60.091C277.138 60.7019 276.41 61.2944 275.603 61.8426C273.996 62.9341 272.134 63.8111 270.907 64.2845C270.59 64.3801 270.269 64.49 269.956 64.5978L269.947 64.6008C269.627 64.7107 269.313 64.8186 268.998 64.9145C268.36 65.1085 267.751 65.2425 267.162 65.2357C266.545 65.2286 265.991 64.9619 265.46 64.5201C264.924 64.0737 264.445 63.4773 263.982 62.8639C263.388 62.0776 262.725 61.1751 262.23 60.4315C261.706 59.6465 261.061 58.3392 260.517 57.1543C259.916 55.8433 260.043 54.1533 260.863 52.9879Z" stroke="#271471" stroke-opacity="0.5"/>
<path d="M276.237 34.1201C277.587 31.2279 282.149 22.702 284 19C284 19 287.553 18.4599 292 19.5C295.372 20.2885 299.258 22.3954 302.5 24.6402C310.02 29.8461 312.5 40.5 312.5 40.5C308.258 39.1504 298.68 36.4338 295.904 36.4338C293.128 36.4338 293.59 41.4469 294.169 43.9534C292.819 46.6528 289.079 52.1671 284.914 52.6299C280.749 53.0926 281.636 50.8946 282.6 49.7377C284.143 46.6528 285.955 40.1358 280.865 38.7475C275.775 37.3593 275.659 35.0841 276.237 34.1201Z" fill="#52BB47"/>
<path d="M276.666 34.3773L276.679 34.3551L276.69 34.3315C277.477 32.6464 279.348 29.0609 281.142 25.6233C282.361 23.2874 283.544 21.0198 284.327 19.4631C284.418 19.4531 284.532 19.4416 284.667 19.4301C285.058 19.3967 285.627 19.3624 286.334 19.36C287.749 19.3551 289.709 19.4777 291.886 19.9869C295.168 20.7544 298.994 22.8209 302.215 25.0513C305.872 27.5826 308.325 31.4575 309.867 34.7353C310.637 36.3694 311.174 37.8435 311.519 38.9082C311.623 39.2284 311.709 39.5113 311.779 39.75C309.646 39.09 306.642 38.2191 303.778 37.4768C302.138 37.0517 300.538 36.6676 299.172 36.3894C297.818 36.1138 296.654 35.9338 295.904 35.9338C295.027 35.9338 294.385 36.3444 293.964 36.9797C293.561 37.5869 293.364 38.3854 293.281 39.2032C293.122 40.7712 293.362 42.6099 293.641 43.8876C292.965 45.203 291.754 47.1268 290.228 48.7927C288.626 50.5419 286.755 51.9222 284.859 52.133C283.847 52.2453 283.204 52.1875 282.815 52.0606C282.448 51.9407 282.349 51.7779 282.315 51.6562C282.27 51.4959 282.295 51.2536 282.429 50.9383C282.559 50.6331 282.766 50.3202 282.984 50.0578L283.021 50.0132L283.047 49.9613C283.837 48.3814 284.71 45.9025 284.72 43.6086C284.725 42.457 284.513 41.315 283.927 40.356C283.334 39.3843 282.382 38.6431 280.996 38.2652C278.501 37.5846 277.333 36.7133 276.837 35.9916C276.358 35.2943 276.475 34.6959 276.666 34.3773Z" stroke="#271471" stroke-opacity="0.5"/>
<path fill-rule="evenodd" clip-rule="evenodd" d="M118.595 67.196C120.705 65.2525 122.533 62.9589 123.98 60.3423C124.128 60.0739 124.272 59.804 124.41 59.5329C125.424 57.5445 126.165 55.4873 126.645 53.4015C129.395 41.4463 123.584 28.5537 111.666 22.3093C103.607 18.0867 94.4778 17.8065 86.7088 20.7942C84.7373 21.5523 82.8534 22.5209 81.0967 23.6889C78.3463 25.5176 75.9078 27.8353 73.9338 30.5995C78.7288 36.0358 85.7721 42.7656 94.0792 49.6465C103.112 57.1287 111.867 63.3211 118.595 67.196ZM114.113 70.5562C105.547 75.7316 94.2868 76.3656 84.579 71.2792C71.0814 64.2071 65.4161 48.6076 71.151 35.5002C76.1037 41.2447 82.5704 47.5535 90.0966 53.7875C98.3991 60.6646 106.743 66.4169 114.113 70.5562Z" fill="#0056FF"/>
<path d="M137.401 76.5402C140.891 73.3514 136.327 64.2631 126.645 53.4015C126.165 55.4873 125.424 57.5445 124.41 59.5329C129.628 65.4621 132.152 69.8383 130.697 71.168C129.352 72.3975 124.849 70.7983 118.595 67.196C111.867 63.3211 103.112 57.1287 94.0792 49.6465C85.7721 42.7656 78.7288 36.0358 73.9338 30.5995C68.6675 24.6289 66.1131 20.2188 67.575 18.883C69.0202 17.5623 74.1079 19.5054 81.0967 23.6889C82.8534 22.5209 84.7373 21.5523 86.7088 20.7942C74.6924 13.775 64.9591 10.7784 61.6544 13.7982C58.3199 16.8454 62.3389 25.2795 71.151 35.5002C76.1037 41.2447 82.5704 47.5535 90.0966 53.7875C98.3991 60.6646 106.743 66.4169 114.113 70.5562C125.31 76.8452 134.26 79.4107 137.401 76.5402Z" fill="#AADAFF"/>
<path d="M126.645 53.4015C136.327 64.2631 140.891 73.3514 137.401 76.5402C134.26 79.4107 125.31 76.8452 114.113 70.5562M126.645 53.4015C129.395 41.4463 123.584 28.5537 111.666 22.3093C103.607 18.0867 94.4778 17.8065 86.7088 20.7942M126.645 53.4015C126.165 55.4873 125.424 57.5445 124.41 59.5329M86.7088 20.7942C74.6924 13.775 64.9591 10.7784 61.6544 13.7982C58.3199 16.8454 62.3389 25.2795 71.151 35.5002M86.7088 20.7942C84.7373 21.5523 82.8534 22.5209 81.0967 23.6889M81.0967 23.6889C74.1079 19.5054 69.0202 17.5623 67.575 18.883C66.1131 20.2188 68.6675 24.6289 73.9338 30.5995M81.0967 23.6889C78.3463 25.5176 75.9078 27.8353 73.9338 30.5995M73.9338 30.5995C78.7288 36.0358 85.7721 42.7656 94.0792 49.6465C103.112 57.1287 111.867 63.3211 118.595 67.196M71.151 35.5002C76.1037 41.2447 82.5704 47.5535 90.0966 53.7875C98.3991 60.6646 106.743 66.4169 114.113 70.5562M71.151 35.5002C65.4161 48.6076 71.0814 64.2071 84.579 71.2792C94.2868 76.3656 105.547 75.7316 114.113 70.5562M118.595 67.196C120.705 65.2525 122.533 62.9589 123.98 60.3423C124.128 60.0739 124.272 59.804 124.41 59.5329M118.595 67.196C124.849 70.7983 129.352 72.3975 130.697 71.168C132.152 69.8383 129.628 65.4621 124.41 59.5329" stroke="#4E30BF" stroke-width="2" stroke-linejoin="round"/>
<path fill-rule="evenodd" clip-rule="evenodd" d="M69.1279 47.2044C78.5704 60.4644 90.4149 69.2575 104.661 73.5838C102.66 73.953 100.618 74.1171 98.5692 74.0735C87.5151 70.4381 78.4336 64.3638 71.3248 55.8506C70.1423 53.0827 69.4027 50.1657 69.1321 47.2033" fill="#4E30BF"/>
<path fill-rule="evenodd" clip-rule="evenodd" d="M110.23 72.5802C93.6871 66.0838 79.3212 54.9572 69.4857 41.0226C69.8455 39.6753 70.3417 38.376 70.9688 37.1399L70.9705 37.1483C80.517 52.4434 95.8933 64.5181 113.762 70.7517C112.654 71.4533 111.473 72.0648 110.23 72.5802Z" fill="#4E30BF"/>
<path fill-rule="evenodd" clip-rule="evenodd" d="M124.235 59.5958C114.557 57.9101 105.436 53.96 97.5836 48.0535C89.7314 42.147 83.3599 34.4435 78.9656 25.5434C79.8431 24.4851 80.7921 23.4904 81.8055 22.5667C85.9435 31.4338 92.1131 39.1258 99.804 45.0065C107.495 50.8871 116.486 54.7874 126.033 56.3845C125.5 57.4908 124.899 58.5634 124.235 59.5958Z" fill="#4E30BF"/>
<path fill-rule="evenodd" clip-rule="evenodd" d="M126.401 51.3989C108.267 46.3837 94.7158 36.5541 85.748 21.9102C86.7442 21.4806 87.7692 21.1089 88.8177 20.7969C92.7257 27.6566 98.1504 33.6746 104.696 38.4117C111.241 43.1488 118.741 46.4852 126.649 48.1773C126.635 49.2583 126.552 50.3342 126.401 51.3989Z" fill="#4E30BF"/>
<path fill-rule="evenodd" clip-rule="evenodd" d="M126.13 42.122C112.996 37.6711 102.469 30.2643 94.5486 19.9015C96.5634 19.6871 98.6056 19.6852 100.639 19.8961C105.657 27.6056 113.627 33.3831 124.55 37.2287C125.233 38.8151 125.762 40.4534 126.13 42.122Z" fill="#4E30BF"/>
</svg>
