<svg width="270" height="58" viewBox="0 0 270 58" fill="none" xmlns="http://www.w3.org/2000/svg">
<path d="M31.4517 22H30.2926C30.0767 20.8409 29.6562 19.6591 29.0312 18.4545C28.4062 17.25 27.5767 16.1364 26.5426 15.1136C25.5085 14.0909 24.2869 13.267 22.8778 12.642C21.4688 12.017 19.8722 11.7045 18.0881 11.7045C15.7017 11.7045 13.4915 12.358 11.4574 13.6648C9.43466 14.9602 7.80398 16.8636 6.56534 19.375C5.33807 21.875 4.72443 24.9318 4.72443 28.5455C4.72443 32.2045 5.33807 35.2841 6.56534 37.7841C7.80398 40.2841 9.43466 42.1761 11.4574 43.4602C13.4915 44.7443 15.7017 45.3864 18.0881 45.3864C19.8722 45.3864 21.4688 45.0795 22.8778 44.4659C24.2869 43.8409 25.5085 43.0227 26.5426 42.0114C27.5767 40.9886 28.4062 39.875 29.0312 38.6705C29.6562 37.4545 30.0767 36.2614 30.2926 35.0909H31.4517C31.2358 36.3182 30.804 37.5966 30.1562 38.9261C29.5085 40.2443 28.6335 41.4773 27.5312 42.625C26.429 43.7727 25.0938 44.7045 23.5256 45.4205C21.9574 46.125 20.1449 46.4773 18.0881 46.4773C15.2244 46.4773 12.7074 45.7273 10.5369 44.2273C8.36648 42.7273 6.6733 40.6307 5.45739 37.9375C4.24148 35.2443 3.63352 32.1136 3.63352 28.5455C3.63352 24.9773 4.24148 21.8466 5.45739 19.1534C6.6733 16.4602 8.36648 14.3636 10.5369 12.8636C12.7074 11.3636 15.2244 10.6136 18.0881 10.6136C20.1449 10.6136 21.9574 10.9659 23.5256 11.6705C25.0938 12.375 26.429 13.3011 27.5312 14.4489C28.6335 15.5852 29.5085 16.8182 30.1562 18.1477C30.804 19.4659 31.2358 20.75 31.4517 22Z" fill="black"/>
<path d="M103.222 19.8182C103.052 17.4318 102.137 15.4716 100.478 13.9375C98.8303 12.4034 96.6541 11.6364 93.9496 11.6364C92.1768 11.6364 90.5916 11.9773 89.1939 12.6591C87.7962 13.3409 86.6939 14.2784 85.8871 15.4716C85.0803 16.6534 84.6768 18.0114 84.6768 19.5455C84.6768 20.4318 84.8246 21.25 85.12 22C85.4155 22.75 85.8643 23.4375 86.4666 24.0625C87.0803 24.6761 87.8473 25.233 88.7678 25.733C89.6996 26.2216 90.7905 26.6591 92.0405 27.0455L95.995 28.2727C97.5064 28.7386 98.8132 29.2614 99.9155 29.8409C101.018 30.4205 101.927 31.0739 102.643 31.8011C103.37 32.517 103.91 33.3182 104.262 34.2045C104.614 35.0795 104.79 36.0568 104.79 37.1364C104.79 38.9545 104.325 40.5739 103.393 41.9943C102.461 43.4148 101.16 44.5284 99.4893 45.3352C97.8189 46.142 95.8814 46.5455 93.6768 46.5455C91.5518 46.5455 89.6939 46.1761 88.103 45.4375C86.5121 44.6875 85.2507 43.6591 84.3189 42.3523C83.3984 41.0341 82.8814 39.5227 82.7678 37.8182H83.8587C83.9723 39.3182 84.4439 40.642 85.2734 41.7898C86.103 42.9375 87.228 43.8352 88.6484 44.483C90.0803 45.1307 91.7564 45.4545 93.6768 45.4545C95.6768 45.4545 97.4268 45.108 98.9268 44.4148C100.438 43.7102 101.609 42.733 102.438 41.483C103.279 40.233 103.7 38.7841 103.7 37.1364C103.7 35.8864 103.427 34.7898 102.881 33.8466C102.336 32.892 101.478 32.0511 100.308 31.3239C99.1371 30.5966 97.6087 29.9432 95.7223 29.3636L91.7678 28.1364C89.0291 27.2727 86.978 26.1307 85.6143 24.7102C84.2621 23.2898 83.5859 21.5682 83.5859 19.5455C83.5859 17.8295 84.0348 16.2955 84.9325 14.9432C85.8303 13.5795 87.0575 12.5057 88.6143 11.7216C90.1825 10.9375 91.9609 10.5455 93.9496 10.5455C95.9496 10.5455 97.7053 10.9432 99.2166 11.7386C100.728 12.5341 101.927 13.6307 102.813 15.0284C103.7 16.4261 104.2 18.0227 104.313 19.8182H103.222ZM113.931 11.0909H114.886L129.136 44.3636H129.272L143.522 11.0909H144.477V46H143.386V14.5H143.249L129.749 46H128.658L115.158 14.5H115.022V46H113.931V11.0909Z" fill="black"/>
<path d="M191.689 46V11.0909H210.439V12.1818H192.78V28H208.803V29.0909H192.78V46H191.689ZM225.55 46.5455C223.482 46.5455 221.692 45.9545 220.18 44.7727C218.669 43.5795 217.504 41.9602 216.686 39.9148C215.868 37.8693 215.459 35.5568 215.459 32.9773C215.459 30.4091 215.874 28.1023 216.703 26.0568C217.533 24.0114 218.703 22.392 220.214 21.1989C221.726 20.0057 223.504 19.4091 225.55 19.4091C226.936 19.4091 228.214 19.6989 229.385 20.2784C230.555 20.8466 231.572 21.6648 232.436 22.733C233.3 23.7898 233.959 25.0455 234.413 26.5H234.55V11.0909H235.641V46H234.55V39.4545H234.413C233.936 40.8977 233.271 42.1534 232.419 43.2216C231.567 44.2784 230.555 45.0966 229.385 45.6761C228.226 46.2557 226.947 46.5455 225.55 46.5455ZM225.55 45.4545C227.402 45.4545 228.999 44.9091 230.339 43.8182C231.692 42.7159 232.732 41.2273 233.459 39.3523C234.186 37.4659 234.55 35.3409 234.55 32.9773C234.55 30.6136 234.18 28.4943 233.442 26.6193C232.714 24.733 231.675 23.2443 230.322 22.1534C228.982 21.0511 227.391 20.5 225.55 20.5C223.709 20.5 222.112 21.0511 220.76 22.1534C219.419 23.2443 218.379 24.733 217.641 26.6193C216.913 28.4943 216.55 30.6136 216.55 32.9773C216.55 35.3409 216.913 37.4659 217.641 39.3523C218.368 41.2273 219.402 42.7159 220.743 43.8182C222.095 44.9091 223.697 45.4545 225.55 45.4545ZM246.533 46V11.0909H247.624V26.5H247.76C248.214 25.0455 248.874 23.7898 249.737 22.733C250.601 21.6648 251.618 20.8466 252.788 20.2784C253.959 19.6989 255.237 19.4091 256.624 19.4091C258.669 19.4091 260.447 20.0057 261.959 21.1989C263.47 22.392 264.641 24.0114 265.47 26.0568C266.3 28.1023 266.714 30.4091 266.714 32.9773C266.714 35.5568 266.3 37.8693 265.47 39.9148C264.652 41.9602 263.487 43.5795 261.976 44.7727C260.476 45.9545 258.692 46.5455 256.624 46.5455C255.226 46.5455 253.942 46.2557 252.771 45.6761C251.612 45.0966 250.607 44.2784 249.754 43.2216C248.902 42.1534 248.237 40.8977 247.76 39.4545H247.624V46H246.533ZM247.624 32.9773C247.624 35.3409 247.987 37.4659 248.714 39.3523C249.442 41.2273 250.476 42.7159 251.817 43.8182C253.169 44.9091 254.771 45.4545 256.624 45.4545C258.476 45.4545 260.072 44.9091 261.413 43.8182C262.766 42.7159 263.805 41.2273 264.533 39.3523C265.26 37.4659 265.624 35.3409 265.624 32.9773C265.624 30.6136 265.254 28.4943 264.516 26.6193C263.788 24.733 262.749 23.2443 261.396 22.1534C260.055 21.0511 258.464 20.5 256.624 20.5C254.783 20.5 253.186 21.0511 251.834 22.1534C250.493 23.2443 249.453 24.733 248.714 26.6193C247.987 28.4943 247.624 30.6136 247.624 32.9773Z" fill="black"/>
<path d="M181.677 38.0977C181.036 37.2398 180.088 36.5802 178.711 36.7953C175.53 37.2924 177.22 34.8067 174.933 35.801C173.104 36.5964 171.784 38.8501 171.354 39.8776C171.221 39.2479 170.717 37.8691 169.763 37.3919C168.57 36.7953 168.172 37.7896 167.476 36.7953C166.78 35.801 166.78 34.409 166.183 33.017C165.587 31.625 168.172 29.537 169.763 30.3324C171.354 31.1278 172.348 30.6307 173.143 31.8238C173.939 33.017 174.933 34.5084 174.933 30.3324C174.933 26.1564 176.922 24.2672 177.816 24.3667C178.711 24.4661 181.495 23.4716 180.998 22.4775C180.501 21.4835 177.816 20.9861 177.816 20.0912C177.816 19.1964 179.01 17.3075 177.816 16.4126C176.623 15.5178 173.64 13.728 171.354 13.9269C169.067 14.1257 168.362 15.0212 168.362 15.8166C168.362 16.6121 171.354 18.1037 169.763 19.0975C168.172 20.0912 163.002 21.6816 163.002 20.0912C163.002 18.5009 162.703 15.1203 163.698 15.1203C164.692 15.1203 164.99 12.6346 165.587 12.734C166.183 12.8335 168.669 11.7404 169.763 12.2372C170.098 12.3895 171.2 12.1026 172.44 11.5857M181.677 38.0977C183.765 35.2742 185 31.7813 185 28C185 20.1473 179.676 13.5382 172.44 11.5857M181.677 38.0977C178.581 42.285 173.608 45 168 45C167.002 45 166.023 44.9139 165.072 44.7488M165.072 44.7488C165.201 44.0092 165.369 43.3981 165.587 43.0593C166.482 41.6673 169.464 42.6616 169.763 41.9656C170.061 41.2696 168.768 40.4741 167.476 39.8776C166.183 39.281 163.996 38.6844 163.698 35.801C163.399 32.9176 162.007 33.4147 161.709 33.017C161.411 32.6193 157.931 31.5256 156.837 29.537C155.743 27.5484 156.837 24.1678 156.837 23.273C156.836 22.6404 154.094 21.9614 152.243 21.6061M165.072 44.7488C157.079 43.3613 151 36.3905 151 28C151 25.7384 151.442 23.5799 152.243 21.6061M152.243 21.6061C154.77 15.386 160.873 11 168 11C169.536 11 171.025 11.2038 172.44 11.5857" stroke="black" stroke-linecap="square" stroke-linejoin="round"/>
<path d="M71.4426 32.155C77.0351 38.7071 79.6469 44.2106 77.5881 46.1717C75.7348 47.9371 70.5199 46.429 64.014 42.6683M71.4426 32.155C73.123 24.8636 69.805 17.0526 62.8777 13.3234C58.1934 10.8016 52.8598 10.6852 48.3011 12.5493M71.4426 32.155C71.1494 33.4271 70.7041 34.6833 70.0992 35.8993M48.3011 12.5493C41.3211 8.3492 35.6508 6.58336 33.7011 8.44061C31.7337 10.3146 34.0312 15.4232 39.119 21.5905M48.3011 12.5493C47.1443 13.0223 46.0374 13.6229 45.0036 14.3441M45.0036 14.3441C40.9446 11.8398 37.983 10.6875 37.1303 11.4997C36.2678 12.3213 37.7338 14.9898 40.7753 18.5918M45.0036 14.3441C43.385 15.4732 41.9458 16.898 40.7753 18.5918M40.7753 18.5918C40.419 19.1073 40.0877 19.6477 39.7838 20.2123C39.5396 20.6659 39.3181 21.1258 39.119 21.5905M40.7753 18.5918C43.5445 21.8715 47.6199 25.925 52.433 30.063C57.6667 34.5625 62.7455 38.2789 66.6538 40.597M39.119 21.5905C41.9786 25.0568 45.7196 28.8576 50.0801 32.6065C54.8905 36.7422 59.7319 40.1931 64.014 42.6683M39.119 21.5905C35.6875 29.6007 38.9035 39.0598 46.749 43.2833C52.3916 46.321 58.9763 45.8685 64.014 42.6683M64.014 42.6683C64.9531 42.0717 65.8384 41.3797 66.6538 40.597M66.6538 40.597C67.8989 39.4018 68.9811 37.9953 69.8429 36.3944C69.9313 36.2302 70.0168 36.0651 70.0992 35.8993M66.6538 40.597C70.2872 42.752 72.9089 43.6985 73.7028 42.9423C74.5613 42.1245 73.1126 39.4765 70.0992 35.8993" stroke="black" stroke-linejoin="round"/>
</svg>
